<?xml version="1.0" encoding="UTF-8"?>
<svg id="_レイヤー_1" data-name="レイヤー_1" xmlns="http://www.w3.org/2000/svg" version="1.1" viewBox="0 0 512 512">
  <!-- Generator: Adobe Illustrator 29.2.1, SVG Export Plug-In . SVG Version: 2.1.0 Build 116)  -->
  <path d="M256,0C114.6,0,0,114.6,0,256s114.6,256,256,256,256-114.6,256-256S397.4,0,256,0ZM256,462.1c-113.8,0-206.1-92.3-206.1-206.1S142.2,49.9,256,49.9s206.1,92.3,206.1,206.1-92.3,206.1-206.1,206.1Z"/>
  <path d="M216,336h24v-64h-24c-13.3,0-24-10.7-24-24s10.7-24,24-24h48c13.3,0,24,10.7,24,24v88h8c13.3,0,24,10.7,24,24s-10.7,24-24,24h-80c-13.3,0-24-10.7-24-24s10.7-24,24-24Z"/>
  <circle cx="256" cy="160" r="32"/>
</svg>