<?xml version="1.0" encoding="UTF-8"?>
<svg id="_レイヤー_1" xmlns="http://www.w3.org/2000/svg" version="1.1" xmlns:xlink="http://www.w3.org/1999/xlink" viewBox="0 0 335.5 100">
  <!-- Generator: Adobe Illustrator 29.2.1, SVG Export Plug-In . SVG Version: 2.1.0 Build 116)  -->
  <defs>
    <style>
      .st0 {
        fill: url(#_名称未設定グラデーション);
      }
    </style>
    <linearGradient id="_名称未設定グラデーション" data-name="名称未設定グラデーション" x1="157.3" y1="69.9" x2="171.5" y2="7.4" gradientUnits="userSpaceOnUse">
      <stop offset="0" stop-color="#7e79ff"/>
      <stop offset="0" stop-color="#7e79ff"/>
      <stop offset="1" stop-color="#55ff79"/>
    </linearGradient>
  </defs>
  <path class="st0" d="M10.6,25.2c-1-.4-2-.4-2.9,0-.9.4-1.7,1.1-2.1,2.1-.4.9-.4,2,0,2.9s1.1,1.7,2.1,2.1l10.4,4.2c1.3.5,2.8.3,3.8-.5s.9-.9,1.2-1.6c.4-1,.4-2,0-2.9-.4-.9-1.1-1.7-2.1-2.1l-10.4-4.2ZM37.5,2.3c-2.1.3-3.6,2.3-3.2,4.4l1.6,11.1c.3,2.1,2.3,3.5,4.4,3.2.7-.1,1.3-.4,1.8-.8,1.1-.8,1.6-2.2,1.4-3.6l-1.6-11.1c-.3-2.1-2.3-3.5-4.4-3.2ZM17.3,9.4h0c-1.7,1.3-2,3.7-.7,5.4l6.9,8.8c1.3,1.7,3.7,2,5.4.7h0c.8-.6,1.3-1.5,1.4-2.6.1-1-.2-2-.8-2.8l-6.9-8.8c-1.3-1.7-3.7-2-5.4-.7ZM75.2,59.3h6c3.8,0,5.6,1.3,5.6,4s-.7,3.2-2,4.2c-1.3,1-3.2,1.5-5.5,1.5h-8.1l-3,7.5c-3.3,8.2-6.7,14.1-10.3,17.5-3.6,3.4-8,5.1-13.3,5.1s-9.2-1.7-12.6-5c-3.4-3.3-5-7.5-5-12.5,0-7.9,3.8-14,11.3-18.2,4.6-2.6,11-3.9,19.1-3.9h6.4c0,0,1.4-3.5,1.4-3.5-2.1.8-4.1,1.1-6.3,1.1-4.1,0-7.5-1.4-10-4.3-2.5-2.9-3.8-6.7-3.8-11.4h-6.6c-3,0-4.5-1.3-4.5-3.9s.6-3,1.8-4.2c1.2-1.1,2.7-1.7,4.6-1.7h6.9c2.9-5.9,6.7-10.5,11.2-13.8,4.5-3.3,9.2-5,14.2-5s7.5,1.2,10.1,3.6c2.6,2.4,3.9,5.6,3.9,9.4s-2.4,9.6-7.3,12.5c-3.2,1.9-8.1,2.9-14.5,2.9h-9.2v.8c0,3.5,2,5.2,6.1,5.2s3.7-.5,5.6-1.6l2.1-1.3c1.9-1.1,3.5-1.6,4.8-1.6s2.7.4,3.7,1.3c1,.9,1.5,2,1.5,3.4s-.4,2.2-1.1,4.1l-3.1,7.6ZM59.9,69c-5.7,0-10.1.5-13.1,1.6-2.8,1-5,2.4-6.6,4.3-1.6,1.9-2.4,4-2.4,6.2s.7,3.9,2.1,5.4c1.4,1.5,3.1,2.2,5.1,2.2s4.7-1.1,6.7-3.3c2-2.2,4-5.7,5.9-10.6l2.4-5.8ZM58.7,31.6h7.9c6.7,0,10.1-1.8,10.1-5.5s-.4-2-1.3-2.7c-.9-.7-2-1.1-3.3-1.1-2.1,0-4.3.8-6.7,2.5-2.4,1.6-4.6,3.9-6.6,6.8ZM116,60.2h4.5c3.4,0,5.1,1.2,5.1,3.6s-.6,2.9-1.8,3.9c-1.2.9-2.9,1.4-5,1.4h-5.2c-2.3,0-3.9-.9-4.7-2.7-2,1.8-4,2.7-5.9,2.7h-4.6c-3,0-5.4-1.1-7.2-3.2-1.8-2.1-2.7-4.9-2.7-8.3,0-5.2,1.8-9.8,5.4-13.9,3.6-4.1,7.6-6.1,12.1-6.1s6,1.2,7.6,3.6c1.4-2,3.1-3,5.3-3s2.2.4,3,1.1c.8.8,1.2,1.7,1.2,2.8s-.2,1.7-.6,2.7l-.4,1.1-5.8,14.4ZM101.3,60.4h1c2.2,0,3.7-.9,4.4-2.7l2.8-7c.4-.9.6-1.7.6-2.3s-.4-1.4-1.1-1.9c-.7-.5-1.6-.8-2.6-.8-2,0-3.9,1.1-5.8,3.4-1.9,2.3-2.8,4.7-2.8,7.1s1.1,4.2,3.4,4.2ZM148.7,38h1.3c3.4,0,5.1,1.2,5.1,3.6s-.6,2.9-1.8,3.9c-1.2.9-2.9,1.4-5,1.4h-3l-5.4,13.3h4.5c3.4,0,5.1,1.2,5.1,3.6s-.6,2.9-1.8,3.9c-1.2.9-2.9,1.4-5,1.4h-7.3c-2.1,0-3.7-.5-4.9-1.4-1.2-.9-1.8-2.2-1.8-3.9s.2-2.1.7-3.3l.8-1.8,4.8-11.8h-.6c-3,0-4.5-1.2-4.5-3.5s.6-3,1.8-3.9c1.2-.9,2.9-1.4,5-1.4h1.9l2.1-5.3.4-1.1c1.3-3,3.3-4.5,6-4.5s2.1.4,2.9,1.1c.8.7,1.2,1.6,1.2,2.7s-.4,2.3-1.1,3.9l-1.5,3.2ZM172.9,39.7c2.8-1.5,5.2-2.3,7-2.3s4.7.7,6.4,2.2c1.7,1.4,2.5,3.3,2.5,5.5s-.3,2.8-1,4.4l-4.3,10.6h4.7c3.4,0,5.1,1.2,5.1,3.6s-.6,2.9-1.8,3.9c-1.2.9-2.9,1.4-5,1.4h-8.1c-1.7,0-3.2-.5-4.4-1.5-1.2-1-1.8-2.2-1.8-3.6s.3-2.2.9-3.7l3.7-9.2c.5-1.2.7-2,.7-2.6,0-1.5-1-2.3-3.1-2.3s-5.1,2.4-7,7.1l-4.5,11.1c-1.4,3.5-3.6,5.3-6.4,5.3s-2.1-.4-2.8-1.1-1.2-1.6-1.2-2.6.2-1.6.6-2.7l.4-1.1,17.6-43.5c1.5-3.7,3.6-5.6,6.3-5.6s2.1.4,2.9,1.1c.8.7,1.2,1.6,1.2,2.7s-.4,2.1-1.1,3.9l-7.7,19ZM203.7,46.9l-1.4,3.4c-1.2,3-2.9,4.5-4.9,4.5s-2.2-.4-3-1.1c-.8-.7-1.2-1.6-1.2-2.7s.3-1.7.9-3.2l4.6-11.3c1.1-2.7,2.7-4.1,4.7-4.1s3.2.9,3.7,2.8l.3,1.3c.2.6.4,1.1.7,1.2s1.1.2,2.4.2h9.5c3.5,0,5.3,1.2,5.3,3.7s-2.2,5.1-6.7,5.1l-.4.4c-4.3,4.1-6.4,7.3-6.4,9.5s1.2,3.4,3.7,3.4h5.1c3.4,0,5.1,1.2,5.1,3.6s-.6,3-1.8,3.9c-1.2.9-2.9,1.4-5,1.4h-7.9c-2.7,0-4.9-.9-6.6-2.8-1.7-1.9-2.6-4.3-2.6-7.3s.5-3.7,1.4-5.5c.9-1.8,2.5-4,4.9-6.6h-4.2ZM247.1,37.4c3.9,0,7.1,1.2,9.7,3.7,2.5,2.5,3.8,5.6,3.8,9.5s-.7,5.8-2,8.6c-1.3,2.9-3,5.1-5.1,6.8-1.4,1.1-2.9,1.9-4.4,2.3-1.5.4-3.6.6-6.3.6-4.4,0-7.4-.5-8.9-1.6-3.6-2.5-5.4-6.2-5.4-11s1.9-9.6,5.6-13.3c3.7-3.8,8.1-5.6,13.1-5.6ZM246.1,46.1c-2,0-3.8,1-5.5,3-1.6,2-2.5,4.1-2.5,6.5s1.8,4.7,5.3,4.7,3.6-.6,4.7-1.9c1.8-2.1,2.8-4.5,2.8-7.1s-.4-2.8-1.3-3.7c-.9-.9-2.1-1.4-3.5-1.4ZM291.5,60.2h4.9c3.4,0,5.1,1.2,5.1,3.6s-.6,2.9-1.8,3.9c-1.2.9-2.9,1.4-5,1.4h-8.5c-1.6,0-3-.5-4.2-1.5-1.1-1-1.7-2.3-1.7-3.8s.4-2.3,1.1-4.1l3.6-8.8c.4-.9.6-1.7.6-2.2,0-.6-.2-1.2-.8-1.7-.6-.5-1.3-.7-2.1-.7-2.8,0-5,2.1-6.7,6.3l-4.8,11.8c-1.4,3.6-3.6,5.4-6.4,5.4s-2.1-.4-3-1.1c-.8-.7-1.2-1.6-1.2-2.6s.2-1.7.6-2.7l.4-1.1,8.2-20.2c1.1-2.6,2.9-3.9,5.4-3.9s3.6.9,4.5,2.8c2.9-2.2,5.6-3.3,8.3-3.3s4.6.7,6.3,2.2c1.6,1.5,2.5,3.3,2.5,5.6s-.3,2.6-.9,4.1l-4.4,10.9ZM310.3,58.8c1.5,0,2.9.6,4,1.7,1.1,1.1,1.7,2.4,1.7,4s-.6,2.9-1.7,4c-1.1,1.1-2.4,1.7-4,1.7s-2.9-.6-4-1.7c-1.1-1.1-1.7-2.4-1.7-4s.6-2.9,1.7-4c1.1-1.1,2.4-1.7,4-1.7ZM328.5,26.2l-8.9,24c-1.5,4.1-3.3,6.2-5.4,6.2s-2-.4-2.7-1.1c-.7-.7-1.1-1.7-1.1-2.7s.1-1.6.4-2.6l7.7-27.7c1-3.5,2.9-5.2,5.7-5.2s2.7.5,3.8,1.5c1,1,1.5,2.2,1.5,3.6s-.3,2.3-1,4.2Z"/>
</svg>