<?xml version="1.0" encoding="UTF-8"?>
<svg id="_レイヤー_1" data-name="レイヤー_1" xmlns="http://www.w3.org/2000/svg" version="1.1" viewBox="0 0 383.31 375.22">
  <!-- Generator: Adobe Illustrator 29.2.1, SVG Export Plug-In . SVG Version: 2.1.0 Build 116)  -->
  <defs>
    <style>
      .st0 {
        fill: #777;
      }

      .st1 {
        fill: #fff;
      }
    </style>
  </defs>
  <circle class="st1" cx="191.8" cy="187.97" r="184.02"/>
  <g>
    <path class="st0" d="M55.45,296.64c0-33.95,16.28-60.1,48.83-78.47,19.88-11.04,47.2-16.57,81.96-16.57l27.73-.35,5.93-14.82c-8.84,3.26-17.85,4.88-27.03,4.88-17.79,0-32.15-6.19-43.07-18.57-10.93-12.38-16.39-28.69-16.39-48.91h-28.6c-13.02,0-19.53-5.52-19.53-16.57,0-7.09,2.64-13.05,7.93-17.87,5.29-4.82,11.83-7.24,19.62-7.24h29.82c12.67-25.23,28.69-44.99,48.04-59.29,10.05-7.43,20.4-12.88,31.03-16.45-9.74-1.59-19.73-2.46-29.92-2.46C90.17,3.94,7.78,86.33,7.78,187.97c0,48.42,18.73,92.45,49.3,125.3-1.06-5.29-1.63-10.82-1.63-16.63Z"/>
    <path class="st0" d="M248.67,42.38c-8.95,0-18.51,3.55-28.69,10.64-10.17,7.09-19.62,16.8-28.34,29.12h33.83c28.83,0,43.25-7.85,43.25-23.54,0-4.65-1.89-8.51-5.67-11.6-3.78-3.08-8.58-4.62-14.39-4.62Z"/>
    <path class="st0" d="M186.94,267.86l10.11-24.94c-24.53,0-43.31,2.32-56.33,6.98-12.09,4.3-21.62,10.49-28.6,18.57-6.98,8.08-10.46,17-10.46,26.77,0,9.07,2.99,16.74,8.98,23.02,5.99,6.28,13.34,9.42,22.06,9.42,10.58,0,20.14-4.71,28.69-14.12,8.55-9.42,17.06-24.65,25.55-45.69Z"/>
    <path class="st0" d="M311.63,48.36c.42,2.96.69,6,.69,9.19,0,23.25-10.41,41.15-31.22,53.71-13.84,8.37-34.64,12.56-62.43,12.56h-39.76v3.49c0,14.88,8.72,22.32,26.16,22.32,7.79,0,15.75-2.32,23.89-6.98l9.24-5.41c8.02-4.65,14.88-6.98,20.58-6.98,6.39,0,11.68,1.92,15.87,5.75,4.18,3.84,6.28,8.78,6.28,14.82,0,3.72-1.63,9.59-4.88,17.61l-13.25,32.79h25.81c16.16,0,24.24,5.7,24.24,17.09,0,7.67-2.85,13.69-8.54,18.05-5.7,4.36-13.6,6.54-23.72,6.54h-34.88l-12.9,32.09c-14.07,35.46-28.77,60.48-44.12,75.07-9.33,8.87-20.08,15-32.2,18.48,11.43,2.22,23.23,3.42,35.32,3.42,101.63,0,184.02-82.39,184.02-184.02,0-55.85-24.92-105.85-64.2-139.6Z"/>
  </g>
</svg>