<?xml version="1.0" encoding="UTF-8"?>
<svg id="_レイヤー_1" xmlns="http://www.w3.org/2000/svg" version="1.1" viewBox="0 0 448 512">
  <!-- Generator: Adobe Illustrator 29.2.1, SVG Export Plug-In . SVG Version: 2.1.0 Build 116)  -->
  <path d="M57.9,89.9h55.4v55.4h-55.4v-55.4Z"/>
  <path d="M168.6,34.5v166.1H2.5V34.5h166.1ZM140.9,62.2H30.2v110.8h110.8V62.2h-.1ZM113.2,366.8h-55.4v55.4h55.4v-55.4Z"/>
  <path d="M168.6,311.4v166.1H2.5v-166.1h166.1ZM30.2,339.1v110.8h110.8v-110.8H30.2ZM334.8,89.9h55.4v55.4h-55.4v-55.4Z"/>
  <path d="M279.4,34.5v166.1h166.1V34.5h-166.1ZM417.8,62.2v110.8h-110.8V62.2h110.8ZM224,62.2v-27.7h27.7v55.4h-27.7v55.4h-27.7V62.2h27.7ZM224,200.6v-55.4h27.7v55.4h-27.7ZM168.6,256v-27.7h27.7v-27.7h27.7v55.4h27.7v-27.7h138.4v27.7h-110.8v27.7h-83.1v-27.7h-27.7.1ZM168.6,256v27.7H57.9v-27.7h-27.7v27.7H2.5v-55.4h83.1v27.7h83.1,0ZM445.5,283.7h-27.7v-55.4h27.7v55.4ZM417.8,283.7h-27.7v55.4h55.4v-27.7h-27.7v-27.7h0ZM307.1,283.7h55.4v27.7h-27.7v27.7h-27.7v-55.4h0ZM362.4,366.8v-27.7h-27.7v27.7h-27.7v27.7h-55.4v27.7h83.1v-55.4h27.7ZM362.4,366.8h83.1v27.7h-55.4v27.7h-27.7v-55.4h0ZM251.7,339.1v27.7h27.7v-55.4h-83.1v27.7h55.4Z"/>
  <path d="M196.3,366.8h27.7v83.1h110.8v27.7h-138.4v-110.8h0ZM445.5,422.1v55.4h-83.1v-27.7h55.4v-27.7h27.7Z"/>
</svg>